<svg width="267.92" height="70.96" viewBox="0 0 267.92 70.96" xmlns="http://www.w3.org/2000/svg"><g id="svgGroup" stroke-linecap="round" fill-rule="evenodd" font-size="9pt" stroke="#bbcef8" stroke-width="0.35mm" fill="#424c86" style="stroke:#bbcef8;stroke-width:0.35mm;fill:#424c86"><path d="M 0.64 63.28 L 0.56 63.04 Q 1.417 62.526 2.131 61.36 A 9.985 9.985 0 0 0 2.68 60.32 A 24.871 24.871 0 0 0 3.59 58.037 A 32.846 32.846 0 0 0 4.28 55.76 Q 4.96 53.2 5.28 50.44 Q 5.6 47.68 5.6 45.36 A 30.816 30.816 0 0 0 5.039 39.409 A 28.16 28.16 0 0 0 4.84 38.48 A 19.585 19.585 0 0 0 4.306 36.586 Q 3.655 34.675 2.72 33.52 Q 3.942 32.298 4.763 30.311 A 14.212 14.212 0 0 0 4.84 30.12 A 25.274 25.274 0 0 0 5.95 26.538 A 28.933 28.933 0 0 0 6.16 25.56 Q 6.64 23.12 6.8 20.56 Q 6.96 18 6.96 15.76 Q 6.96 14.351 6.913 13.224 A 38.727 38.727 0 0 0 6.88 12.56 Q 6.8 11.2 6.72 10.48 A 7.407 7.407 0 0 1 5.205 9.736 Q 4.513 9.299 3.805 8.679 A 15.908 15.908 0 0 1 2.92 7.84 A 14.54 14.54 0 0 1 0.882 5.249 A 12.424 12.424 0 0 1 0 3.52 A 157.253 157.253 0 0 0 6.794 4.12 A 132.785 132.785 0 0 0 9.72 4.28 Q 14.32 4.48 18.4 4.48 A 225.225 225.225 0 0 0 23.522 4.425 Q 28.625 4.309 32.241 3.945 A 65.368 65.368 0 0 0 32.48 3.92 A 145.692 145.692 0 0 1 35.611 3.625 Q 38.364 3.397 40.336 3.365 A 38.506 38.506 0 0 1 40.96 3.36 Q 41.475 3.36 41.886 3.386 A 9.585 9.585 0 0 1 42.08 3.4 Q 42.56 3.44 42.96 3.52 Q 42.496 4.447 41.996 6.941 A 49.132 49.132 0 0 0 41.96 7.12 Q 41.44 9.76 40.96 12.88 A 195.254 195.254 0 0 0 40.165 18.589 A 179.133 179.133 0 0 0 40.12 18.96 Q 39.844 21.226 39.686 22.648 A 132.858 132.858 0 0 0 39.6 23.44 L 39.04 23.68 Q 36.302 21.646 35.056 19.192 A 9.931 9.931 0 0 1 35 19.08 Q 33.934 16.914 33.312 13.892 A 33.302 33.302 0 0 1 33.12 12.88 Q 32 12 30.32 11.76 A 20.536 20.536 0 0 0 28.999 11.618 Q 28.279 11.563 27.446 11.539 A 47.081 47.081 0 0 0 26.08 11.52 Q 24 11.52 22.08 11.6 Q 20.61 11.661 19.609 11.676 A 39.858 39.858 0 0 1 19.04 11.68 Q 18.64 14 18.36 17.04 Q 18.08 20.08 17.88 23.52 Q 17.68 26.96 17.56 30.68 Q 17.44 34.4 17.44 38.08 Q 17.44 43.12 17.56 47.64 Q 17.652 51.101 17.861 53.881 A 82.771 82.771 0 0 0 18 55.52 L 31.52 56.88 A 23.606 23.606 0 0 1 34.456 49.591 A 22.169 22.169 0 0 1 35.48 48.08 Q 38.32 44.24 41.6 40.64 L 42.08 40.8 Q 41.84 42.64 41.76 44.44 Q 41.68 46.24 41.68 47.92 Q 41.68 52.08 42.08 55.44 Q 42.48 58.8 43.04 60.48 Q 41.68 60.64 40.36 60.92 Q 39.04 61.2 37.52 61.84 Q 36.024 62.47 34.334 63.565 A 28.595 28.595 0 0 0 34.28 63.6 Q 32.56 64.72 30.48 66.48 Q 23.76 64.48 17.2 63.48 Q 10.64 62.48 5.36 62.48 Q 2.8 62.48 0.64 63.28 Z M 72.08 70.96 L 71.6 70.48 Q 71.93 69.38 72.222 67.921 A 48.005 48.005 0 0 0 72.48 66.52 Q 72.88 64.16 73.12 61.8 Q 73.36 59.44 73.52 57.44 Q 73.667 55.598 73.679 54.706 A 11.21 11.21 0 0 0 73.68 54.56 Q 73.68 50 73.64 45.44 Q 73.6 40.88 73.6 36.32 L 72.56 35.2 L 62.72 39.6 L 62.72 56 A 18.028 18.028 0 0 0 62.809 57.873 Q 63.159 61.203 64.88 61.84 L 64.88 63.04 L 50.16 63.04 L 50.16 61.84 A 2.589 2.589 0 0 0 51.102 61.151 Q 51.372 60.847 51.598 60.438 A 5.158 5.158 0 0 0 51.72 60.2 A 4.994 4.994 0 0 0 52.062 59.229 Q 52.312 58.223 52.32 56.812 A 16.491 16.491 0 0 0 52.32 56.72 L 52.32 14.64 A 86.121 86.121 0 0 0 52.301 12.796 Q 52.282 11.923 52.245 11.144 A 51.955 51.955 0 0 0 52.24 11.04 Q 52.16 9.44 51.88 8.08 Q 51.6 6.72 51.12 5.44 A 21.221 21.221 0 0 0 50.426 3.809 A 25.358 25.358 0 0 0 49.92 2.8 Q 51.52 3.36 53.68 3.36 A 17.768 17.768 0 0 0 57.089 3.016 A 22.229 22.229 0 0 0 59.24 2.48 Q 62.16 1.6 65.52 0 Q 63.92 1.92 63.32 5.12 Q 62.765 8.081 62.723 11.864 A 56.206 56.206 0 0 0 62.72 12.48 L 62.72 34.08 A 75.649 75.649 0 0 0 66.362 31.56 A 60.126 60.126 0 0 0 68.88 29.6 Q 71.6 27.36 74.48 24.32 A 152.489 152.489 0 0 0 75.761 25.512 Q 76.372 26.074 76.924 26.568 A 92.95 92.95 0 0 0 76.96 26.6 Q 78.08 27.6 79.24 28.4 A 42.593 42.593 0 0 0 81.64 29.936 A 45.972 45.972 0 0 0 81.68 29.96 A 31.031 31.031 0 0 0 83.014 30.706 Q 83.726 31.082 84.532 31.468 A 50.462 50.462 0 0 0 84.64 31.52 A 20.069 20.069 0 0 0 84.185 33.495 A 22.515 22.515 0 0 0 84.12 33.88 A 21.811 21.811 0 0 0 83.992 34.813 Q 83.935 35.296 83.887 35.853 A 50.657 50.657 0 0 0 83.8 37.04 Q 83.718 38.36 83.654 40.096 A 207.151 207.151 0 0 0 83.6 41.76 Q 83.521 44.527 83.52 48.621 A 435.201 435.201 0 0 0 83.52 48.72 Q 83.52 52.24 83.56 54.52 Q 83.6 56.8 83.68 58.24 A 31.621 31.621 0 0 0 83.744 59.169 Q 83.78 59.582 83.824 59.94 A 13.357 13.357 0 0 0 83.92 60.6 Q 84.08 61.52 84.24 62.32 A 17.61 17.61 0 0 0 82.021 63.279 A 20.976 20.976 0 0 0 81 63.84 A 38.006 38.006 0 0 0 78.13 65.704 A 42.091 42.091 0 0 0 77.72 66 A 41.663 41.663 0 0 0 74.643 68.478 A 26.644 26.644 0 0 0 74.64 68.48 Q 73.2 69.76 72.08 70.96 Z M 255.68 69.52 L 255.04 69.28 Q 255.346 68.484 255.629 67.406 A 29.381 29.381 0 0 0 255.8 66.72 Q 256.16 65.2 256.4 63.52 Q 256.64 61.84 256.8 60.08 Q 256.96 58.32 256.96 56.8 L 256.96 50.16 Q 254.56 48.48 252.08 47.16 A 52.856 52.856 0 0 0 247.517 45.012 A 58.877 58.877 0 0 0 246.8 44.72 L 246.8 56 A 18.028 18.028 0 0 0 246.889 57.873 Q 247.239 61.203 248.96 61.84 L 248.96 63.04 L 234.24 63.04 L 234.24 61.84 Q 236.185 61.12 236.379 57.545 A 15.273 15.273 0 0 0 236.4 56.72 L 236.4 14.64 A 66.938 66.938 0 0 0 236.377 12.842 Q 236.348 11.745 236.28 10.8 Q 236.16 9.12 235.88 7.76 A 18.429 18.429 0 0 0 235.345 5.733 A 16.314 16.314 0 0 0 235.16 5.2 A 13.699 13.699 0 0 0 234.302 3.325 A 15.778 15.778 0 0 0 234 2.8 A 7.15 7.15 0 0 0 235.204 3.141 Q 235.826 3.264 236.557 3.318 A 16.408 16.408 0 0 0 237.76 3.36 Q 240.24 3.36 243.12 2.56 Q 246 1.76 249.6 0 Q 248.351 1.526 247.674 3.955 A 17.118 17.118 0 0 0 247.48 4.72 A 22.481 22.481 0 0 0 247.093 6.972 Q 246.946 8.151 246.873 9.528 A 55.766 55.766 0 0 0 246.8 12.48 L 246.8 29.12 Q 248.48 28 250.16 26.56 Q 251.512 25.401 253.123 23.828 A 94.678 94.678 0 0 0 253.92 23.04 A 22.954 22.954 0 0 0 257.497 24.975 A 27.817 27.817 0 0 0 259.4 25.72 A 43.782 43.782 0 0 0 262.219 26.596 Q 263.717 27.009 265.428 27.389 A 82.08 82.08 0 0 0 266.8 27.68 A 14.75 14.75 0 0 0 266.308 29.894 Q 266.144 31.002 266.098 32.266 A 27.868 27.868 0 0 0 266.08 33.28 Q 266.08 34.116 266.152 35.386 A 69.97 69.97 0 0 0 266.16 35.52 Q 266.223 36.598 266.337 37.223 A 4.679 4.679 0 0 0 266.4 37.52 L 254.56 42 L 254.56 42.32 A 53.107 53.107 0 0 1 258.118 43.167 Q 259.86 43.649 261.361 44.214 A 30.098 30.098 0 0 1 262.04 44.48 A 45.591 45.591 0 0 1 266.885 46.771 A 40.713 40.713 0 0 1 267.92 47.36 Q 267.6 49.04 267.48 50.72 Q 267.36 52.4 267.36 54.64 A 60.149 60.149 0 0 0 267.413 57.264 Q 267.52 59.702 267.841 61.376 A 15.203 15.203 0 0 0 267.92 61.76 A 45.701 45.701 0 0 0 265.857 62.754 A 55.767 55.767 0 0 0 264.56 63.44 Q 262.8 64.4 261.12 65.44 Q 259.44 66.48 258.04 67.52 A 26.31 26.31 0 0 0 256.899 68.415 Q 256.347 68.874 255.887 69.317 A 15.113 15.113 0 0 0 255.68 69.52 Z M 125.84 26.64 L 125.84 33.28 A 75.649 75.649 0 0 0 129.482 30.76 A 60.126 60.126 0 0 0 132 28.8 Q 134.72 26.56 137.6 23.52 A 152.489 152.489 0 0 0 138.881 24.712 Q 139.492 25.274 140.044 25.768 A 92.95 92.95 0 0 0 140.08 25.8 Q 141.2 26.8 142.36 27.6 A 42.593 42.593 0 0 0 144.76 29.136 A 45.972 45.972 0 0 0 144.8 29.16 A 31.031 31.031 0 0 0 146.134 29.906 Q 146.846 30.282 147.652 30.668 A 50.462 50.462 0 0 0 147.76 30.72 A 20.069 20.069 0 0 0 147.305 32.695 A 22.515 22.515 0 0 0 147.24 33.08 A 21.811 21.811 0 0 0 147.112 34.013 Q 147.055 34.496 147.007 35.053 A 50.657 50.657 0 0 0 146.92 36.24 Q 146.838 37.56 146.774 39.296 A 207.151 207.151 0 0 0 146.72 40.96 Q 146.641 43.727 146.64 47.821 A 435.201 435.201 0 0 0 146.64 47.92 Q 146.64 51.44 146.68 53.72 Q 146.72 56 146.8 57.44 A 31.621 31.621 0 0 0 146.864 58.369 Q 146.9 58.782 146.944 59.14 A 13.357 13.357 0 0 0 147.04 59.8 Q 147.2 60.72 147.36 61.52 A 17.61 17.61 0 0 0 145.141 62.479 A 20.976 20.976 0 0 0 144.12 63.04 A 38.006 38.006 0 0 0 141.25 64.904 A 42.091 42.091 0 0 0 140.84 65.2 A 41.663 41.663 0 0 0 137.763 67.678 A 26.644 26.644 0 0 0 137.76 67.68 Q 136.32 68.96 135.2 70.16 L 134.72 69.68 A 23.778 23.778 0 0 0 135.069 68.373 Q 135.209 67.784 135.342 67.121 A 48.005 48.005 0 0 0 135.6 65.72 Q 136 63.36 136.24 61 Q 136.48 58.64 136.64 56.64 Q 136.787 54.798 136.799 53.906 A 11.21 11.21 0 0 0 136.8 53.76 Q 136.8 49.2 136.76 44.64 Q 136.72 40.08 136.72 35.52 L 135.68 34.4 L 125.84 38.8 L 125.84 56 A 18.028 18.028 0 0 0 125.929 57.873 Q 126.279 61.203 128 61.84 L 128 63.04 L 113.28 63.04 L 113.28 61.84 A 2.589 2.589 0 0 0 114.222 61.151 Q 114.492 60.847 114.718 60.438 A 5.158 5.158 0 0 0 114.84 60.2 A 4.994 4.994 0 0 0 115.182 59.229 Q 115.432 58.223 115.44 56.812 A 16.491 16.491 0 0 0 115.44 56.72 L 115.44 28.8 L 112.48 27.52 L 112.48 26.64 Q 115.28 26.24 118.56 25.56 A 179.789 179.789 0 0 0 121.477 24.931 Q 122.845 24.624 124.057 24.325 A 105.312 105.312 0 0 0 124.4 24.24 L 125.84 26.64 Z M 188.08 30.8 A 27.816 27.816 0 0 0 187.895 32.903 A 24.995 24.995 0 0 0 187.88 33.28 Q 187.84 34.48 187.84 36.08 Q 187.84 37.68 187.92 39.28 A 46.108 46.108 0 0 0 188.018 40.777 Q 188.077 41.487 188.155 42.119 A 28.22 28.22 0 0 0 188.16 42.16 Q 189.68 41.6 191.32 41.2 Q 192.96 40.8 195 40.48 A 63.572 63.572 0 0 1 197.134 40.184 Q 198.3 40.042 199.6 39.92 Q 202.16 39.68 205.6 39.44 Q 205.416 41.584 205.373 45.228 A 201.256 201.256 0 0 0 205.36 47.6 Q 205.36 51.519 205.478 54.699 A 131.473 131.473 0 0 0 205.52 55.72 Q 205.68 59.28 206.08 61.12 Q 203.6 61.12 201.04 61.44 A 45.095 45.095 0 0 0 197.038 62.118 A 40.169 40.169 0 0 0 196.16 62.32 A 33.135 33.135 0 0 0 193.121 63.203 A 28.436 28.436 0 0 0 191.84 63.68 Q 190.051 64.396 188.774 65.239 A 11.554 11.554 0 0 0 188.48 65.44 Q 187.52 64.56 186.36 63.92 Q 185.236 63.3 183.7 62.868 A 17.615 17.615 0 0 0 183.6 62.84 Q 182 62.4 179.84 62.12 Q 177.68 61.84 174.72 61.68 Q 174.88 59.2 175.72 56.6 A 17.157 17.157 0 0 1 176.467 54.67 Q 176.904 53.726 177.422 52.966 A 9.246 9.246 0 0 1 177.84 52.4 A 7.632 7.632 0 0 1 178.964 52.496 Q 180.145 52.674 181.832 53.184 A 45.886 45.886 0 0 1 183.6 53.76 A 78.713 78.713 0 0 1 186.3 54.758 Q 189.545 56.02 194 58 Q 194.48 55.44 194.72 53.32 Q 194.96 51.2 194.96 48.88 L 194.96 46.8 A 9.109 9.109 0 0 0 194.929 46.031 A 7.57 7.57 0 0 0 194.88 45.6 Q 191.36 45.92 186.72 46.76 Q 182.08 47.6 178 48.72 Q 178.245 46.086 178.349 44.367 A 53.9 53.9 0 0 0 178.4 43.4 Q 178.48 41.52 178.48 40 Q 178.48 36.906 178.214 34.462 A 33.944 33.944 0 0 0 178.12 33.68 Q 177.76 30.96 176.96 28.64 Q 180 28.64 183.52 27.6 A 54.209 54.209 0 0 0 186.148 26.743 Q 188.855 25.79 192.32 24.32 A 22.141 22.141 0 0 0 195.954 25.74 Q 199.848 26.913 205.473 27.444 A 85.501 85.501 0 0 0 207.36 27.6 A 20.751 20.751 0 0 1 206.421 29.566 Q 205.883 30.546 205.298 31.305 A 8.476 8.476 0 0 1 204.08 32.6 A 6.528 6.528 0 0 1 200.549 34.1 A 8.663 8.663 0 0 1 199.52 34.16 Q 198.32 34.16 196.8 33.92 A 22.171 22.171 0 0 1 193.915 33.259 A 24.329 24.329 0 0 1 193.72 33.2 Q 192.16 32.72 190.68 32.12 Q 189.2 31.52 188.08 30.8 Z M 103.12 24.24 L 104.56 26.64 L 104.56 56 A 18.028 18.028 0 0 0 104.649 57.873 Q 104.999 61.203 106.72 61.84 L 106.72 63.04 Q 104.16 63.44 101.92 64 Q 99.68 64.56 97.28 65.28 L 96.88 65.28 A 13.907 13.907 0 0 1 94.188 57.634 A 17.411 17.411 0 0 1 94.16 56.64 L 94.16 28.8 L 91.2 27.52 L 91.2 26.64 Q 94 26.24 97.28 25.56 A 179.789 179.789 0 0 0 100.197 24.931 Q 101.565 24.624 102.777 24.325 A 105.312 105.312 0 0 0 103.12 24.24 Z M 166.08 24.24 L 167.52 26.64 L 167.52 56 A 18.028 18.028 0 0 0 167.609 57.873 Q 167.959 61.203 169.68 61.84 L 169.68 63.04 Q 167.12 63.44 164.88 64 Q 162.64 64.56 160.24 65.28 L 159.84 65.28 A 13.907 13.907 0 0 1 157.148 57.634 A 17.411 17.411 0 0 1 157.12 56.64 L 157.12 28.8 L 154.16 27.52 L 154.16 26.64 Q 156.96 26.24 160.24 25.56 A 179.789 179.789 0 0 0 163.157 24.931 Q 164.525 24.624 165.737 24.325 A 105.312 105.312 0 0 0 166.08 24.24 Z M 224.08 24.24 L 225.52 26.64 L 225.52 56 A 18.028 18.028 0 0 0 225.609 57.873 Q 225.959 61.203 227.68 61.84 L 227.68 63.04 Q 225.12 63.44 222.88 64 Q 220.64 64.56 218.24 65.28 L 217.84 65.28 A 13.907 13.907 0 0 1 215.148 57.634 A 17.411 17.411 0 0 1 215.12 56.64 L 215.12 28.8 L 212.16 27.52 L 212.16 26.64 Q 214.96 26.24 218.24 25.56 A 179.789 179.789 0 0 0 221.157 24.931 Q 222.525 24.624 223.737 24.325 A 105.312 105.312 0 0 0 224.08 24.24 Z M 91.92 11.04 Q 93.28 8.72 95.24 6.44 Q 97.2 4.16 99.6 2.88 Q 100.058 3.491 100.99 4.32 A 21.118 21.118 0 0 0 101.08 4.4 Q 102.08 5.28 103.24 6.16 A 80.792 80.792 0 0 0 104.901 7.388 A 69.704 69.704 0 0 0 105.48 7.8 Q 106.55 8.553 107.11 8.874 A 6.641 6.641 0 0 0 107.12 8.88 Q 104.687 10.598 102.926 12.219 A 28.581 28.581 0 0 0 102.52 12.6 Q 100.64 14.4 99.28 17.12 A 7.12 7.12 0 0 0 98.93 16.744 Q 98.488 16.298 97.8 15.72 Q 96.8 14.88 95.68 14 Q 94.56 13.12 93.52 12.32 Q 92.48 11.52 91.92 11.04 Z M 154.88 11.04 Q 156.24 8.72 158.2 6.44 Q 160.16 4.16 162.56 2.88 Q 163.018 3.491 163.95 4.32 A 21.118 21.118 0 0 0 164.04 4.4 Q 165.04 5.28 166.2 6.16 A 80.792 80.792 0 0 0 167.861 7.388 A 69.704 69.704 0 0 0 168.44 7.8 Q 169.51 8.553 170.07 8.874 A 6.641 6.641 0 0 0 170.08 8.88 Q 167.647 10.598 165.886 12.219 A 28.581 28.581 0 0 0 165.48 12.6 Q 163.6 14.4 162.24 17.12 A 7.12 7.12 0 0 0 161.89 16.744 Q 161.448 16.298 160.76 15.72 Q 159.76 14.88 158.64 14 Q 157.52 13.12 156.48 12.32 Q 155.44 11.52 154.88 11.04 Z M 212.88 11.04 Q 214.24 8.72 216.2 6.44 Q 218.16 4.16 220.56 2.88 Q 221.018 3.491 221.95 4.32 A 21.118 21.118 0 0 0 222.04 4.4 Q 223.04 5.28 224.2 6.16 A 80.792 80.792 0 0 0 225.861 7.388 A 69.704 69.704 0 0 0 226.44 7.8 Q 227.51 8.553 228.07 8.874 A 6.641 6.641 0 0 0 228.08 8.88 Q 225.647 10.598 223.886 12.219 A 28.581 28.581 0 0 0 223.48 12.6 Q 221.6 14.4 220.24 17.12 A 7.12 7.12 0 0 0 219.89 16.744 Q 219.448 16.298 218.76 15.72 Q 217.76 14.88 216.64 14 Q 215.52 13.12 214.48 12.32 Q 213.44 11.52 212.88 11.04 Z M 246.8 31.36 L 246.8 41.36 L 259.04 36.4 L 258.88 33.76 L 246.8 31.36 Z" vector-effect="non-scaling-stroke"/></g></svg>
