<svg width="261.651" height="36.001" viewBox="0 0 261.651 36.001" xmlns="http://www.w3.org/2000/svg"><g id="svgGroup" stroke-linecap="round" fill-rule="evenodd" font-size="9pt" stroke="#bbcef8" stroke-width="0.2mm" fill="#424c86" style="stroke:#bbcef8;stroke-width:0.2mm;fill:#424c86"><path d="M 240.35 36 L 232.6 36 A 2.591 2.591 0 0 1 231.888 35.911 Q 230.8 35.6 230.8 34.2 L 230.8 1.8 A 2.591 2.591 0 0 1 230.89 1.088 Q 231.201 0 232.6 0 L 240.35 0 A 2.591 2.591 0 0 1 241.063 0.09 Q 242.15 0.401 242.15 1.8 L 242.15 13.3 L 244.15 13.3 L 249.3 1.65 A 2.974 2.974 0 0 1 249.874 0.75 Q 250.588 0 251.8 0 L 259.5 0 A 2.886 2.886 0 0 1 259.965 0.034 Q 261.2 0.237 260.6 1.65 L 255.5 13.3 Q 258.3 13.45 259.975 15.275 Q 261.65 17.1 261.65 20.1 L 261.65 34.2 A 2.591 2.591 0 0 1 261.561 34.913 Q 261.25 36 259.85 36 L 252.15 36 A 2.591 2.591 0 0 1 251.438 35.911 Q 250.35 35.6 250.35 34.2 L 250.35 24.45 A 2.61 2.61 0 0 0 250.275 23.791 Q 250.002 22.75 248.75 22.75 L 242.15 22.75 L 242.15 34.2 A 2.591 2.591 0 0 1 242.061 34.913 Q 241.75 36 240.35 36 Z M 41.5 36 L 33.75 36 A 2.591 2.591 0 0 1 33.038 35.911 Q 31.95 35.6 31.95 34.2 L 31.95 1.8 A 2.591 2.591 0 0 1 32.04 1.088 Q 32.351 0 33.75 0 L 41.5 0 A 2.591 2.591 0 0 1 42.213 0.09 Q 43.3 0.401 43.3 1.8 L 43.3 12.65 L 51.65 12.65 L 51.65 1.8 A 2.591 2.591 0 0 1 51.74 1.088 Q 52.051 0 53.45 0 L 61.2 0 A 2.591 2.591 0 0 1 61.913 0.09 Q 63 0.401 63 1.8 L 63 34.2 A 2.591 2.591 0 0 1 62.911 34.913 Q 62.6 36 61.2 36 L 53.45 36 A 2.591 2.591 0 0 1 52.738 35.911 Q 51.65 35.6 51.65 34.2 L 51.65 23.1 L 43.3 23.1 L 43.3 34.2 A 2.591 2.591 0 0 1 43.211 34.913 Q 42.9 36 41.5 36 Z M 109.45 36 L 101.95 36 A 2.591 2.591 0 0 1 101.238 35.911 Q 100.15 35.6 100.15 34.2 L 100.15 1.8 A 2.591 2.591 0 0 1 100.24 1.088 Q 100.551 0 101.95 0 L 107.15 0 A 3.898 3.898 0 0 1 108.765 0.327 A 3.786 3.786 0 0 1 110.1 1.35 L 119.8 12.45 L 119.8 1.8 A 2.591 2.591 0 0 1 119.89 1.088 Q 120.201 0 121.6 0 L 129.1 0 A 2.591 2.591 0 0 1 129.813 0.09 Q 130.9 0.401 130.9 1.8 L 130.9 34.2 A 2.591 2.591 0 0 1 130.811 34.913 Q 130.5 36 129.1 36 L 121.6 36 A 2.591 2.591 0 0 1 120.888 35.911 Q 119.8 35.6 119.8 34.2 L 119.8 28.05 L 111.25 17.7 L 111.25 34.2 A 2.591 2.591 0 0 1 111.161 34.913 Q 110.85 36 109.45 36 Z M 184.75 36 L 168.95 36 A 2.591 2.591 0 0 1 168.238 35.911 Q 167.15 35.6 167.15 34.2 L 167.15 28.35 A 2.591 2.591 0 0 1 167.24 27.638 Q 167.551 26.55 168.95 26.55 L 182.4 26.55 A 1.574 1.574 0 0 0 182.792 26.505 A 1.035 1.035 0 0 0 183.375 26.125 A 1.575 1.575 0 0 0 183.688 25.328 A 2.042 2.042 0 0 0 183.7 25.1 Q 183.7 24.294 183.408 23.893 A 1.014 1.014 0 0 0 183.375 23.85 A 1.153 1.153 0 0 0 182.834 23.484 Q 182.652 23.423 182.431 23.403 A 2.237 2.237 0 0 0 182.4 23.4 L 174.9 22.35 A 14.611 14.611 0 0 1 172.376 21.734 Q 170.911 21.225 169.782 20.417 A 8.58 8.58 0 0 1 169.275 20.025 Q 167.627 18.648 167.257 15.811 A 13.658 13.658 0 0 1 167.15 14.05 L 167.15 8.8 A 10.711 10.711 0 0 1 167.461 6.143 A 7.186 7.186 0 0 1 169.9 2.25 Q 172.221 0.352 176.036 0.055 A 18.9 18.9 0 0 1 177.5 0 L 191.5 0 A 2.591 2.591 0 0 1 192.213 0.09 Q 193.3 0.401 193.3 1.8 L 193.3 7.75 A 2.591 2.591 0 0 1 193.211 8.463 Q 192.9 9.55 191.5 9.55 L 179.85 9.55 A 1.733 1.733 0 0 0 179.292 9.633 Q 178.519 9.895 178.501 10.996 A 3.243 3.243 0 0 0 178.5 11.05 A 2.287 2.287 0 0 0 178.575 11.659 Q 178.817 12.535 179.85 12.65 L 187.3 13.65 A 15.909 15.909 0 0 1 189.436 14.113 A 11.834 11.834 0 0 1 191.4 14.875 Q 193.15 15.75 194.125 17.45 A 6.636 6.636 0 0 1 194.783 19.114 Q 194.982 19.889 195.056 20.803 A 14.171 14.171 0 0 1 195.1 21.95 L 195.1 27.2 A 10.489 10.489 0 0 1 194.775 29.889 A 7.258 7.258 0 0 1 192.35 33.725 Q 189.981 35.685 186.053 35.957 A 18.908 18.908 0 0 1 184.75 36 Z M 92.2 36 L 70.9 36 A 2.591 2.591 0 0 1 70.188 35.911 Q 69.1 35.6 69.1 34.2 L 69.1 28.25 A 2.591 2.591 0 0 1 69.19 27.538 Q 69.501 26.45 70.9 26.45 L 75.85 26.45 L 75.85 9.65 L 70.9 9.65 A 2.591 2.591 0 0 1 70.188 9.561 Q 69.1 9.25 69.1 7.85 L 69.1 1.8 A 2.591 2.591 0 0 1 69.19 1.088 Q 69.501 0 70.9 0 L 92.2 0 A 2.591 2.591 0 0 1 92.913 0.09 Q 94 0.401 94 1.8 L 94 7.85 A 2.591 2.591 0 0 1 93.911 8.563 Q 93.6 9.65 92.2 9.65 L 87.35 9.65 L 87.35 26.45 L 92.2 26.45 A 2.591 2.591 0 0 1 92.913 26.54 Q 94 26.851 94 28.25 L 94 34.2 A 2.591 2.591 0 0 1 93.911 34.913 Q 93.6 36 92.2 36 Z M 160.1 36 L 138.8 36 A 2.591 2.591 0 0 1 138.088 35.911 Q 137 35.6 137 34.2 L 137 28.25 A 2.591 2.591 0 0 1 137.09 27.538 Q 137.401 26.45 138.8 26.45 L 143.75 26.45 L 143.75 9.65 L 138.8 9.65 A 2.591 2.591 0 0 1 138.088 9.561 Q 137 9.25 137 7.85 L 137 1.8 A 2.591 2.591 0 0 1 137.09 1.088 Q 137.401 0 138.8 0 L 160.1 0 A 2.591 2.591 0 0 1 160.813 0.09 Q 161.9 0.401 161.9 1.8 L 161.9 7.85 A 2.591 2.591 0 0 1 161.811 8.563 Q 161.5 9.65 160.1 9.65 L 155.25 9.65 L 155.25 26.45 L 160.1 26.45 A 2.591 2.591 0 0 1 160.813 26.54 Q 161.9 26.851 161.9 28.25 L 161.9 34.2 A 2.591 2.591 0 0 1 161.811 34.913 Q 161.5 36 160.1 36 Z M 222.85 36 L 201.55 36 A 2.591 2.591 0 0 1 200.838 35.911 Q 199.75 35.6 199.75 34.2 L 199.75 28.25 A 2.591 2.591 0 0 1 199.84 27.538 Q 200.151 26.45 201.55 26.45 L 206.5 26.45 L 206.5 9.65 L 201.55 9.65 A 2.591 2.591 0 0 1 200.838 9.561 Q 199.75 9.25 199.75 7.85 L 199.75 1.8 A 2.591 2.591 0 0 1 199.84 1.088 Q 200.151 0 201.55 0 L 222.85 0 A 2.591 2.591 0 0 1 223.563 0.09 Q 224.65 0.401 224.65 1.8 L 224.65 7.85 A 2.591 2.591 0 0 1 224.561 8.563 Q 224.25 9.65 222.85 9.65 L 218 9.65 L 218 26.45 L 222.85 26.45 A 2.591 2.591 0 0 1 223.563 26.54 Q 224.65 26.851 224.65 28.25 L 224.65 34.2 A 2.591 2.591 0 0 1 224.561 34.913 Q 224.25 36 222.85 36 Z M 24.5 36 L 12.3 36 A 25.367 25.367 0 0 1 9.018 35.803 Q 5.157 35.297 3 33.5 Q 0.27 31.225 0.025 26.712 A 16.815 16.815 0 0 1 0 25.8 L 0 10.25 Q 0 6.597 1.453 4.276 A 7.414 7.414 0 0 1 3 2.5 Q 5.973 0.023 12.184 0.001 A 31.508 31.508 0 0 1 12.3 0 L 24.5 0 A 2.591 2.591 0 0 1 25.213 0.09 Q 26.3 0.401 26.3 1.8 L 26.3 7.85 A 2.591 2.591 0 0 1 26.211 8.563 Q 25.9 9.65 24.5 9.65 L 14.45 9.65 A 5.434 5.434 0 0 0 13.318 9.757 Q 11.4 10.168 11.4 12.15 L 11.4 24.05 A 2.657 2.657 0 0 0 11.6 25.121 Q 12.181 26.45 14.45 26.45 L 24.5 26.45 A 2.591 2.591 0 0 1 25.213 26.54 Q 26.3 26.851 26.3 28.25 L 26.3 34.2 A 2.591 2.591 0 0 1 26.211 34.913 Q 25.9 36 24.5 36 Z" vector-effect="non-scaling-stroke"/></g></svg>
